# xmcd CD database file
#
# Track frame offsets:
#	150
#	47916
#	69707
#	90024
#	107774
#	124780
#	137894
#	162213
#	191003
#	199903
#	221021
#	230106
#	245648
#	267195
#	278693
#
# Disc length: 3886 seconds
#
# Revision: 0
# Processed by: cddbd v1.5.2PL0 Copyright (c) Steve Scherf et al.
# Submitted via: CDex 1.70beta2
#
DISCID=e20f2c0f
DTITLE=Louis Armstrong and Ella Fitzgerald - Porgy and Bess
DYEAR=1980
DGENRE=Jazz
TTITLE0=Porgy and Bess - Overture
TTITLE1=Porgy and Bess - Summertime
TTITLE2=Porgy and Bess - i Wants to Stay Here
TTITLE3=Porgy and Bess - My Manﾴs gone Now
TTITLE4=Porgy and Bess - I got Planty Oﾴ Nuttin
TTITLE5=Porgy and Bess - Buzzard Song
TTITLE6=Porgy and Bess - Bess, You is my Woman now
TTITLE7=Porgy and Bess - It Ainﾴt Necessesarily So
TTITLE8=Porgy and Bess - What you want wid Bess
TTITLE9=Porgy and Bess - A woman is A Sometime Thing
TTITLE10=Porgy and Bess - Oh, Doctor Jesus
TTITLE11=Porgy and Bess - Medley
TTITLE12=Porgy and Bess - Thereﾴs A Boat Dat￟s Leavinﾴ Soon for New York
TTITLE13=Porgy and Bess - Bess, Oh Whereﾴs my Bess
TTITLE14=Porgy and Bess - Oh Lawd, iﾴm On my Way
EXTD=YEAR: 1980
EXTT0=
EXTT1=
EXTT2=
EXTT3=
EXTT4=
EXTT5=
EXTT6=
EXTT7=
EXTT8=
EXTT9=
EXTT10=
EXTT11=
EXTT12=
EXTT13=
EXTT14=
PLAYORDER=
